# Blender v3.0.1 OBJ File: ''
# www.blender.org
mtllib untitled.mtl
o Cube
v 0.100000 1.000000 -1.000000
v 0.100000 -1.000000 -1.000000
v 0.100000 1.000000 1.000000
v 0.100000 -1.000000 1.000000
v -0.100000 1.000000 -1.000000
v -0.100000 -1.000000 -1.000000
v -0.100000 1.000000 1.000000
v -0.100000 -1.000000 1.000000
v -0.100000 -0.554866 0.639031
v -0.100000 0.554866 0.639031
v -0.100000 -0.554866 -0.639031
v -0.100000 0.554866 -0.639031
v 0.100000 -0.554866 -0.639031
v 0.100000 0.554866 -0.639031
v 0.100000 -0.554866 0.639031
v 0.100000 0.554866 0.639031
vt 0.625000 0.500000
vt 0.875000 0.500000
vt 0.875000 0.750000
vt 0.625000 0.750000
vt 0.375000 0.750000
vt 0.625000 1.000000
vt 0.375000 1.000000
vt 0.625000 0.250000
vt 0.375000 0.250000
vt 0.430642 0.204879
vt 0.569358 0.204879
vt 0.375000 0.000000
vt 0.625000 0.000000
vt 0.569358 0.045121
vt 0.430642 0.045121
vt 0.125000 0.500000
vt 0.375000 0.500000
vt 0.125000 0.750000
vt 0.430642 0.704879
vt 0.569358 0.704879
vt 0.569358 0.545121
vt 0.430642 0.545121
vt 0.375000 0.000000
vt 0.375000 0.000000
vt 0.375000 0.250000
vt 0.375000 0.250000
vt 0.489000 0.250000
vt 0.511000 0.250000
vt 0.511000 0.250000
vt 0.489000 0.250000
vt 0.375000 0.750000
vt 0.375000 0.500000
vt 0.375000 0.500000
vt 0.375000 0.750000
vt 0.511000 0.750000
vt 0.511000 0.750000
vt 0.489000 0.750000
vt 0.489000 0.750000
vn 0.0000 1.0000 0.0000
vn 0.0000 0.0000 1.0000
vn -1.0000 0.0000 0.0000
vn 0.0000 -1.0000 0.0000
vn 1.0000 0.0000 0.0000
vn 0.0000 0.0000 -1.0000
usemtl Material
s off
f 1/1/1 5/2/1 7/3/1 3/4/1
f 4/5/2 3/4/2 7/6/2 8/7/2
f 5/8/3 6/9/3 11/10/3 12/11/3
f 6/9/3 8/12/3 7/13/3 5/8/3 12/11/3 10/14/3 9/15/3 11/10/3
f 6/16/4 2/17/4 4/5/4 8/18/4
f 15/19/5 4/5/5 2/17/5 1/1/5 3/4/5 16/20/5 14/21/5 13/22/5
f 3/4/5 4/5/5 15/19/5 16/20/5
f 6/9/6 5/8/6 1/1/6 2/17/6
f 10/23/6 16/24/6 15/25/6 9/26/6
f 13/27/1 11/28/1 9/29/1 15/30/1
f 12/31/2 11/32/2 13/33/2 14/34/2
f 10/35/4 12/36/4 14/37/4 16/38/4
